<?xml version="1.0" encoding="UTF-8"?>
<svg width="20px" height="20px" viewBox="0 0 20 20" version="1.1" xmlns="http://www.w3.org/2000/svg" xmlns:xlink="http://www.w3.org/1999/xlink">
    <!-- Generator: Sketch 58 (84663) - https://sketch.com -->
    <title>Group 2</title>
    <desc>Created with Sketch.</desc>
    <defs>
        <path d="M0,5.61406 C0,3.64896 0,2.66641 0.382436,1.91583 C0.718834,1.25561 1.25561,0.718834 1.91583,0.382436 C2.66641,0 3.64896,0 5.61406,0 L14.3859,0 C16.351,0 17.3336,0 18.0842,0.382436 C18.7444,0.718834 19.2812,1.25561 19.6176,1.91583 C20,2.66641 20,3.64896 20,5.61406 L20,14.3859 C20,16.351 20,17.3336 19.6176,18.0842 C19.2812,18.7444 18.7444,19.2812 18.0842,19.6176 C17.3336,20 16.351,20 14.3859,20 L5.61406,20 C3.64896,20 2.66641,20 1.91583,19.6176 C1.25561,19.2812 0.718834,18.7444 0.382436,18.0842 C0,17.3336 0,16.351 0,14.3859 L0,5.61406 Z" id="path-1"></path>
        <rect id="path-3" x="0.315" y="0" width="15.12" height="15.12"></rect>
    </defs>
    <g id="Page-1" stroke="none" stroke-width="1" fill="none" fill-rule="evenodd">
        <g id="Group-2">
            <g id="icon20">
                <path d="M0,5.61406 C0,3.64896 0,2.66641 0.382436,1.91583 C0.718834,1.25561 1.25561,0.718834 1.91583,0.382436 C2.66641,0 3.64896,0 5.61406,0 L14.3859,0 C16.351,0 17.3336,0 18.0842,0.382436 C18.7444,0.718834 19.2812,1.25561 19.6176,1.91583 C20,2.66641 20,3.64896 20,5.61406 L20,14.3859 C20,16.351 20,17.3336 19.6176,18.0842 C19.2812,18.7444 18.7444,19.2812 18.0842,19.6176 C17.3336,20 16.351,20 14.3859,20 L5.61406,20 C3.64896,20 2.66641,20 1.91583,19.6176 C1.25561,19.2812 0.718834,18.7444 0.382436,18.0842 C0,17.3336 0,16.351 0,14.3859 L0,5.61406 Z" id="Path" fill="#787878" fill-rule="nonzero"></path>
                <g id="Clipped">
                    <mask id="mask-2" fill="white">
                        <use xlink:href="#path-1"></use>
                    </mask>
                    <path stroke="#787878" stroke-width="0.5" d="M0.25,5.61406 L0.25,14.3859 C0.25,16.7920396 0.296856284,17.3655462 0.605186362,17.9706999 C0.917624887,18.5838781 1.41616495,19.0824254 2.02931829,19.3948436 C2.63446486,19.7031493 3.207943,19.75 5.61406,19.75 L14.3859,19.75 C16.792043,19.75 17.3655515,19.703148 17.9706993,19.3948499 C18.5838612,19.0824178 19.0824178,18.5838612 19.3948424,17.9707141 C19.703148,17.3655515 19.75,16.792043 19.75,14.3859 L19.75,5.61406 C19.75,3.207943 19.7031493,2.63446486 19.3948485,2.02932792 C19.0824254,1.41616495 18.5838781,0.917624887 17.9707056,0.605189288 C17.3655462,0.296856284 16.7920396,0.25 14.3859,0.25 L5.61406,0.25 C3.20794645,0.25 2.63447019,0.296855004 2.02932739,0.605187753 C1.4161481,0.917617376 0.917617376,1.4161481 0.605188065,2.02932677 C0.296855004,2.63447019 0.25,3.20794645 0.25,5.61406 Z"></path>
                </g>
            </g>
            <g id="sound" transform="translate(2.000000, 2.000000)">
                <mask id="mask-4" fill="white">
                    <use xlink:href="#path-3"></use>
                </mask>
                <g id="Rectangle"></g>
                <g id="Group" mask="url(#mask-4)" stroke="#FFFFFF" stroke-width="1.26">
                    <g transform="translate(1.260000, 3.150000)" id="Path">
                        <path d="M0.945,6.106149 L2.2277304,6.106149 C2.3662107,6.106149 2.5008291,6.151761 2.6107704,6.235992 L5.546772,8.484399 C5.797575,8.676486 6.145776,8.646183 6.31134,8.377173 C6.684678,7.770672 7.245,6.510546 7.245,4.41 C7.245,2.309454 6.684678,1.0493343 6.31134,0.4428522 C6.145776,0.173817 5.797575,0.143514 5.546772,0.3355947 L2.6107704,2.584008 C2.5008291,2.668239 2.3662107,2.713851 2.2277304,2.713851 L0.945,2.713851 C0.5970636,2.713851 0.315,2.995902 0.315,3.343851 L0.315,5.476149 C0.315,5.824098 0.5970636,6.106149 0.945,6.106149 Z"></path>
                        <path d="M11.025,0 C11.025,0 12.285,1.26 12.285,4.41 C12.285,7.56 11.025,8.82 11.025,8.82" stroke-linecap="round" stroke-linejoin="round"></path>
                        <path d="M9.135,1.89 C9.135,1.89 9.765,2.52 9.765,4.41 C9.765,6.3 9.135,6.93 9.135,6.93" stroke-linecap="round" stroke-linejoin="round"></path>
                    </g>
                </g>
            </g>
        </g>
    </g>
</svg>