<svg xmlns="http://www.w3.org/2000/svg" width="100%" height="100%" viewBox="-3 0 29 23" fill="none" id="c12b5a4e69860bc968b47223fd-translate-img" class="c12b5a4e69860bc968b47223fd-tab-container-icon c12b5a4e69860bc968b47223fd-activeSvg">
                     <path d="M 18.604 16.111 c 0.018 0.276 0.048 0.531 0.092 0.758 c -0.583 0.106 -0.606 -0.469 -0.092 -0.758 Z m -4.354 0.16 h 0.996 l -0.498 -1.43 l -0.498 1.43 Z m 2.75 -6.105 c 3.697 0 7 2.465 7 5.837 c 0 1.196 -0.432 2.37 -1.193 3.281 c -0.033 1.068 0.596 2.6 1.162 3.715 c -1.518 -0.274 -3.676 -0.88 -4.654 -1.48 c -5.387 1.313 -9.315 -1.984 -9.315 -5.516 c 0 -3.39 3.326 -5.837 7 -5.837 Z m -0.437 7.584 l -1.44 -3.792 h -0.76 l -1.447 3.792 h 0.812 l 0.312 -0.875 h 1.422 l 0.313 0.875 h 0.788 Z m 3.988 -2.296 l 0.079 -0.353 l -0.642 -0.125 l -0.064 0.292 c -0.215 -0.032 -0.445 -0.036 -0.679 -0.012 l 0.028 -0.458 h 0.717 v -0.608 h -0.631 l 0.084 -0.335 l -0.627 -0.188 c -0.046 0.154 -0.084 0.304 -0.123 0.523 h -0.715 v 0.608 h 0.638 c -0.018 0.196 -0.026 0.399 -0.03 0.605 c -0.704 0.259 -1.002 0.751 -1.002 1.198 c 0 0.528 0.416 0.992 1.074 0.932 c 0.817 -0.074 1.362 -0.691 1.682 -1.45 c 0.332 0.19 0.471 0.511 0.346 0.807 c -0.115 0.275 -0.455 0.536 -1.104 0.523 v 0.654 c 0.721 0.011 1.429 -0.262 1.707 -0.923 c 0.27 -0.647 -0.041 -1.352 -0.738 -1.69 Z m -1.25 1.073 c 0.17 -0.177 0.305 -0.401 0.407 -0.626 c -0.147 -0.013 -0.306 -0.009 -0.462 0.012 c 0.011 0.22 0.028 0.425 0.055 0.614 Z m -10.492 2.703 c -1.887 -0.271 -3.571 -1.165 -4.827 -2.478 c -0.182 -0.189 -0.315 -0.636 -0.019 -0.819 l 0.302 -0.078 c 0.235 -0.199 -0.221 -1.009 -0.04 -1.14 c 0.561 -0.401 0.295 -0.893 -0.051 -1.299 c -0.146 -0.172 -0.948 -1 -1.038 -0.853 c 0.067 -0.226 -0.146 -0.772 -0.274 -0.987 c -0.217 -0.362 -0.502 -0.585 -0.617 -0.982 c -0.046 -0.158 -0.046 -0.64 -0.139 -0.751 c -0.038 -0.045 -0.327 -0.167 -0.317 -0.233 c 0.278 -1.655 1.044 -3.143 2.149 -4.318 l 0.746 -0.301 c 0.468 -0.703 0.495 -0.158 0.916 -0.341 c 0.141 0 0.301 -0.578 0.452 -0.667 c 0.261 -0.169 0.062 -0.169 0.013 -0.245 c -0.104 -0.168 2.191 -1.003 2.229 -0.853 c 0.032 0.127 -1.135 0.734 -1.007 0.716 c -0.296 0.039 -0.352 0.571 -0.297 0.568 c 0.147 -0.005 1.074 -0.704 1.506 -0.555 c 0.423 0.146 1.183 -0.336 1.48 -0.582 c 0.149 -0.125 0.286 -0.344 0.483 -0.344 c 0.909 0 2.268 0.374 2.579 0.56 c 0.474 0.283 -0.204 0.263 -0.277 0.447 c -0.058 0.142 -0.19 0.335 -0.249 0.412 c -0.102 0.133 -0.399 0.077 -0.341 -0.082 c 0.059 -0.167 0.348 -0.231 -0.086 -0.271 c -0.445 -0.041 -0.568 -0.341 -1.014 0.034 c -0.134 0.113 -0.234 0.286 -0.321 0.433 c -0.123 0.21 -0.42 0.201 -0.544 0.396 c -0.12 0.192 0.07 0.512 0.304 0.371 c 0.062 -0.038 0.765 0.645 0.674 0.095 c -0.059 -0.364 0.196 -0.612 0.201 -0.887 c 0.003 -0.184 0.28 -0.066 0.206 0.03 c -0.097 0.121 -0.203 0.534 0.051 0.554 c 0.096 0.008 0.339 -0.158 0.425 -0.084 c -0.096 -0.002 -0.315 0.383 -0.3 0.376 c -0.108 0.048 -0.233 -0.021 -0.15 0.21 c 0.074 0.228 -0.408 0.201 -0.495 0.247 c -0.037 0.02 -0.417 -0.114 -0.408 -0.028 c -0.131 -0.109 0.037 -0.379 -0.072 -0.422 c -0.11 0.168 -0.058 0.512 -0.294 0.512 c -0.202 0 -0.482 0.229 -0.604 0.369 c -0.087 0.097 -0.609 0.308 -0.666 0.302 c 0.299 0.031 0.286 0.25 0.261 0.437 c -0.06 0.433 -0.995 0.032 -0.956 0.196 c 0.038 0.158 -0.107 0.586 -0.139 0.724 c -0.029 0.125 0.402 0.205 0.378 0.267 c 0.002 -0.007 0.583 -0.199 0.64 -0.25 l 0.131 -0.293 c 0.11 -0.073 0.226 -0.133 0.35 -0.179 l 0.149 -0.258 c 0.05 -0.02 0.645 -0.112 0.686 -0.092 c 0.149 0.068 0.428 0.353 0.532 0.483 c 0.036 0.047 0.227 0.117 0.227 0.188 c 0.069 0.107 -0.051 0.148 -0.006 0.223 c 0.104 0.193 0.132 -0.401 0.087 -0.29 c 0 -0.189 0.142 0.071 0.174 0.049 l -0.657 -0.654 c -0.204 -0.342 0.543 0.183 0.64 0.247 c 0.096 0.063 0.285 0.629 0.537 0.501 c 0.158 -0.08 -0.004 -0.139 0.106 -0.229 l 0.449 -0.09 c -0.357 0.261 0.279 0.602 0.182 0.556 c 0.16 0.074 0.254 -0.058 0.354 -0.021 c 0.057 0.022 0.663 0.015 0.566 -0.082 c 0.151 0.076 0.082 0.748 -0.044 0.851 c -0.204 0.169 -1.182 0.1 -1.399 -0.057 c -0.361 -0.262 -0.297 0.279 -0.473 0.352 c -0.344 0.142 -0.857 -0.463 -1.218 -0.482 c 0.176 0.026 0.015 -0.445 0.015 -0.478 c -0.139 -0.171 -1.02 0.019 -1.252 0.05 c -0.434 0.058 -0.89 0.052 -1.223 0.324 c -0.234 0.189 -0.237 0.5 -0.477 0.651 c -0.156 0.095 -0.325 0.064 -0.456 0.189 c -0.234 0.222 -0.504 0.552 -0.637 0.845 c -0.054 0.123 0.072 0.416 0.041 0.574 c -0.307 0.967 0.076 2.308 1.248 2.456 c 0.25 0.032 0.506 0.144 0.759 0.117 c 1.332 -2.88 4.568 -4.92 8.347 -4.92 c 0.932 0 1.831 0.124 2.678 0.354 c -1.105 -4.322 -5.012 -7.521 -9.678 -7.521 c -5.523 0 -10 4.477 -10 10 s 4.477 10 10 10 l 0.074 -0.004 c -0.509 -0.533 -0.931 -1.128 -1.265 -1.766 Z m 4.778 -13.035 c 0.068 -0.008 -0.089 0.138 -0.089 0.138 c 0.027 0.212 0.183 0.327 0.479 0.435 c 0.36 0.129 0.03 0.375 -0.176 0.317 c -0.114 -0.032 -0.704 -0.21 -0.725 0.021 c 0 0.138 -0.56 0.001 -0.473 -0.145 c 0.061 -0.098 0.041 -0.319 0.152 -0.464 c 0.16 -0.21 0.313 -0.096 0.318 0.026 c 0.002 0.327 0.332 -0.306 0.514 -0.328 Z m -4.532 -0.292 c 0.08 0.113 0.688 -0.163 0.591 -0.146 c 0.187 -0.094 0.024 -0.104 -0.082 -0.159 c -0.035 -0.179 -0.065 -0.456 -0.177 -0.566 l 0.074 -0.085 c -0.173 -0.249 -0.301 0.302 -0.301 0.302 l 0.09 -0.026 l -0.042 0.113 c 0.071 0.129 0.019 0.207 0.007 0.277 l -0.124 0.077 c -0.045 0.055 0.215 0.062 0.217 0.071 c 0.009 0.028 -0.313 0.074 -0.253 0.142 Z m -0.396 -0.286 c -0.069 0.071 0.002 0.116 0.073 0.085 c 0.104 -0.045 0.244 -0.044 0.26 -0.183 l 0.066 -0.084 c 0.029 -0.043 -0.057 -0.114 -0.092 -0.121 l -0.124 0.086 l -0.061 0.016 l -0.056 0.072 l 0.006 0.04 l -0.072 0.089 Z m 2.634 2.107 c -0.055 0 -0.369 0.029 -0.34 0.084 c 0.178 0.293 0.403 -0.076 0.34 -0.084 Z" );="" fill="#FCFCFCFF"/>
                    </svg>