<svg xmlns="http://www.w3.org/2000/svg" width="20" height="22" viewBox="0 0 24 24" fill="none" id="imageOcr">
                        <path d="M20.5,5.2h-3c-0.2,0-0.4-0.1-0.5-0.3l-0.3-1c-0.3-1-1.3-1.7-2.4-1.7H9.6c-1.1,0-2,0.7-2.4,1.7l-0.3,1&#10;                        C6.9,5,6.7,5.2,6.5,5.2h-3C1.5,5.2,0,6.8,0,8.7v9.2c0,2,1.6,3.6,3.5,3.6h17c1.9,0,3.5-1.6,3.5-3.6V8.7C24,6.8,22.4,5.2,20.5,5.2z&#10;                        M23,17.9c0,1.4-1.1,2.5-2.5,2.5h-17c-1.4,0-2.5-1.1-2.5-2.5V8.7c0-1.4,1.1-2.5,2.5-2.5h3c0.6,0,1.2-0.4,1.4-1l0.3-1&#10;                        c0.2-0.6,0.8-1,1.4-1h4.7c0.6,0,1.2,0.4,1.4,1l0.3,1c0.2,0.6,0.8,1,1.4,1h3c1.4,0,2.5,1.1,2.5,2.5L23,17.9L23,17.9z" stroke="#858E99" fill="#ffffff"/>&gt;
                        <path d="M11.9,7c-3.3,0-6,2.7-6,6s2.7,6,6,6s6-2.7,6-6S15.2,7,11.9,7z M11.9,18c-2.8,0-5-2.2-5-5s2.2-5,5-5s5,2.2,5,5&#10;                        S14.6,18,11.9,18z" stroke="#858E99" fill="#ffffff"/>
                        <path d="M12.1,10c-1.8,0-3.3,1.7-3.3,3.9c0,0.3,0.2,0.5,0.4,0.5s0.4-0.2,0.4-0.5c0-1.6,1.1-2.9,2.5-2.9&#10;                        tc0.2,0,0.4-0.2,0.4-0.5C12.5,10.3,12.3,10,12.1,10z" stroke="#858E99" fill="#ffffff"/>


                        </svg>