<svg xmlns="http://www.w3.org/2000/svg" width="22" height="22" viewBox="0 0 24 24">
                            <path d="M12.8,1.6c-6.1,0-11,4.9-11,11s4.9,11,11,11c0.7,0,1.4-0.1,2-0.2l-0.8-2.3c-0.1,0.1-0.2,0.2-0.3,0.3v-1.3L12,15&#10;                            c-0.1-0.3-0.1-0.5-0.1-0.8V16c-0.9,0-1.7,0.1-2.5,0.2c-0.2-0.9-0.3-1.8-0.3-2.8h2.9v0.7c0-0.7,0.3-1.3,0.7-1.8&#10;                            c0.5-0.5,1.1-0.7,1.8-0.7c0.3,0,0.5,0,0.8,0.1l5.1,1.7h1.7c0,0.2,0,0.4-0.1,0.5l1.8,0.6c0.1-0.7,0.2-1.3,0.2-2&#10;                            C23.8,6.5,18.9,1.6,12.8,1.6z M11.9,17.9v3.6c-0.8-0.5-1.5-1.7-2.1-3.4C10.5,18,11.2,17.9,11.9,17.9L11.9,17.9z M5.1,7.6&#10;                            C5.8,8,6.7,8.3,7.6,8.5c-0.2,1-0.3,2-0.4,3.1H3.7C3.8,10.2,4.3,8.8,5.1,7.6L5.1,7.6z M3.7,13.5h3.5c0,1.1,0.2,2.2,0.4,3.2&#10;                            c-0.9,0.2-1.7,0.5-2.5,0.9C4.3,16.4,3.8,15,3.7,13.5L3.7,13.5z M9.1,21c-1.1-0.5-2-1.1-2.8-1.9c0.5-0.2,1.1-0.4,1.7-0.6&#10;                            C8.3,19.4,8.7,20.2,9.1,21L9.1,21z M8,6.7C7.4,6.6,6.8,6.4,6.3,6.2C7.1,5.3,8,4.7,9.1,4.2C8.7,4.9,8.3,5.8,8,6.7z M11.9,11.7H9&#10;                            c0-1,0.2-1.9,0.3-2.8C10.2,9,11,9.1,11.9,9.1L11.9,11.7z M11.9,7.3c-0.7,0-1.4-0.1-2.1-0.2c0.5-1.7,1.3-2.8,2.1-3.4V7.3z M13.7,3.7&#10;                            c0.8,0.5,1.5,1.7,2.1,3.4c-0.7,0.1-1.4,0.2-2.1,0.2V3.7z M13.7,11.7V9.1c0.9,0,1.7-0.1,2.5-0.2c0.2,0.9,0.3,1.8,0.3,2.8H13.7z&#10;                             M16.5,4.2c1.1,0.5,2,1.1,2.8,1.9c-0.5,0.2-1.1,0.4-1.7,0.6C17.3,5.8,17,4.9,16.5,4.2L16.5,4.2z M18.4,11.7c0-1.1-0.2-2.2-0.4-3.1&#10;                            c0.9-0.2,1.7-0.5,2.5-0.9c0.8,1.2,1.3,2.6,1.4,4L18.4,11.7z" fill="#858E99"/>
                            <path d="M17.3,23.6C17.3,23.6,17.3,23.6,17.3,23.6c-0.3,0-0.6-0.2-0.7-0.5l-2.9-8.7c-0.1-0.2,0-0.5,0.2-0.7c0.2-0.2,0.5-0.2,0.7-0.2&#10;                            l8.7,2.9c0.3,0.1,0.5,0.3,0.5,0.6c0,0.3-0.2,0.6-0.4,0.7l-3.9,1.5L18,23.1C17.9,23.4,17.6,23.6,17.3,23.6L17.3,23.6z" fill="#858E99"/>
                            </svg>