<svg xmlns="http://www.w3.org/2000/svg" width="100%" height="100%" viewBox="0 0 30 26" fill="none" id="c12b5a4e69860bc968b47223fd-bookmark-img" class="c12b5a4e69860bc968b47223fd-tab-container-icon">
                        <mask id="mask0" mask-type="alpha" maskUnits="userSpaceOnUse" x="0" y="0" width="30" height="26">
                        <rect width="30" height="26" fill="#FCFCFCFF"/>
                        </mask>
                        <g mask="url(#mask0)">
                        <path d="M14.0469 5.00105C14.3422 4.0713 15.6578 4.07131 15.9531 5.00106L17.4288 9.64786C17.5615 10.0654 17.9505 10.3481 18.3886 10.3451L23.264 10.3127C24.2395 10.3062 24.646 11.5575 23.853 12.1256L19.8897 14.9651C19.5335 15.2202 19.3849 15.6775 19.5231 16.0933L21.0605 20.7201C21.3681 21.6458 20.3038 22.4191 19.5184 21.8405L15.5932 18.9486C15.2404 18.6887 14.7596 18.6887 14.4068 18.9486L10.4816 21.8405C9.69625 22.4191 8.63188 21.6458 8.93949 20.7201L10.4769 16.0933C10.6151 15.6775 10.4665 15.2202 10.1103 14.9651L6.14698 12.1256C5.35398 11.5575 5.76053 10.3062 6.73602 10.3127L11.6114 10.3451C12.0495 10.3481 12.4385 10.0654 12.5712 9.64786L14.0469 5.00105Z" fill="#FCFCFCFF" stroke="#FCFCFCFF"/>
                        </g>
                    </svg>